<svg width="195" height="33" viewBox="0 0 195 33" fill="none" xmlns="http://www.w3.org/2000/svg">
<path d="M70.1499 19.2139H68.6558V6.36426H75.8101V7.68262H70.1499V12.3936H75.4673V13.7031H70.1499V19.2139ZM79.1938 9.58105V19.2139H77.7349V9.58105H79.1938ZM78.4819 5.97754C78.7222 5.97754 78.9272 6.05664 79.0972 6.21484C79.2729 6.36719 79.3608 6.60742 79.3608 6.93555C79.3608 7.25781 79.2729 7.49805 79.0972 7.65625C78.9272 7.81445 78.7222 7.89355 78.4819 7.89355C78.23 7.89355 78.019 7.81445 77.8491 7.65625C77.6851 7.49805 77.603 7.25781 77.603 6.93555C77.603 6.60742 77.6851 6.36719 77.8491 6.21484C78.019 6.05664 78.23 5.97754 78.4819 5.97754ZM85.7153 19.3896C84.4966 19.3896 83.5298 18.9736 82.8149 18.1416C82.106 17.3096 81.7515 16.0732 81.7515 14.4326C81.7515 12.7744 82.1147 11.5234 82.8413 10.6797C83.5679 9.83008 84.5347 9.40527 85.7417 9.40527C86.2515 9.40527 86.6968 9.47266 87.0776 9.60742C87.4585 9.74219 87.7866 9.92383 88.062 10.1523C88.3374 10.375 88.5688 10.6299 88.7563 10.917H88.8618C88.8384 10.7354 88.8149 10.4863 88.7915 10.1699C88.7681 9.85352 88.7563 9.5957 88.7563 9.39648V5.53809H90.2153V19.2139H89.0376L88.8179 17.8428H88.7563C88.5747 18.1299 88.3433 18.3906 88.062 18.625C87.7866 18.8594 87.4556 19.0469 87.0688 19.1875C86.688 19.3223 86.2368 19.3896 85.7153 19.3896ZM85.9438 18.1768C86.9751 18.1768 87.7046 17.8838 88.1323 17.2979C88.5601 16.7119 88.7739 15.8418 88.7739 14.6875V14.4238C88.7739 13.1992 88.5688 12.2588 88.1587 11.6025C87.7544 10.9463 87.0161 10.6182 85.9438 10.6182C85.0474 10.6182 84.3765 10.9639 83.9312 11.6553C83.4858 12.3408 83.2632 13.2783 83.2632 14.4678C83.2632 15.6514 83.4829 16.5654 83.9224 17.21C84.3677 17.8545 85.0415 18.1768 85.9438 18.1768ZM97.0181 9.40527C97.8384 9.40527 98.5415 9.58691 99.1274 9.9502C99.7134 10.3135 100.162 10.8232 100.472 11.4795C100.783 12.1299 100.938 12.8916 100.938 13.7646V14.6699H94.2847C94.3022 15.8008 94.5835 16.6621 95.1284 17.2539C95.6733 17.8457 96.4409 18.1416 97.4312 18.1416C98.0405 18.1416 98.5796 18.0859 99.0483 17.9746C99.5171 17.8633 100.003 17.6992 100.507 17.4824V18.7656C100.021 18.9824 99.5376 19.1406 99.0571 19.2402C98.5825 19.3398 98.02 19.3896 97.3696 19.3896C96.4438 19.3896 95.6353 19.2021 94.9438 18.8271C94.2583 18.4463 93.7251 17.8896 93.3442 17.1572C92.9634 16.4248 92.7729 15.5283 92.7729 14.4678C92.7729 13.4307 92.9458 12.5342 93.2915 11.7783C93.6431 11.0166 94.1353 10.4307 94.7681 10.0205C95.4067 9.61035 96.1567 9.40527 97.0181 9.40527ZM97.0005 10.6006C96.2212 10.6006 95.6001 10.8555 95.1372 11.3652C94.6743 11.875 94.3989 12.5869 94.311 13.501H99.4087C99.4028 12.9268 99.312 12.4229 99.1362 11.9893C98.9663 11.5498 98.7056 11.21 98.354 10.9697C98.0024 10.7236 97.5513 10.6006 97.0005 10.6006ZM104.884 19.2139H103.417V5.53809H104.884V19.2139ZM109.428 9.58105V19.2139H107.969V9.58105H109.428ZM108.716 5.97754C108.957 5.97754 109.162 6.05664 109.332 6.21484C109.507 6.36719 109.595 6.60742 109.595 6.93555C109.595 7.25781 109.507 7.49805 109.332 7.65625C109.162 7.81445 108.957 7.89355 108.716 7.89355C108.464 7.89355 108.253 7.81445 108.083 7.65625C107.919 7.49805 107.837 7.25781 107.837 6.93555C107.837 6.60742 107.919 6.36719 108.083 6.21484C108.253 6.05664 108.464 5.97754 108.716 5.97754ZM118.709 19.2139H111.687V18.2471L116.969 10.7236H112.021V9.58105H118.595V10.6621L113.383 18.0801H118.709V19.2139ZM124.563 9.42285C125.711 9.42285 126.564 9.68066 127.121 10.1963C127.677 10.7119 127.956 11.5352 127.956 12.666V19.2139H126.892L126.611 17.79H126.541C126.271 18.1416 125.99 18.4375 125.697 18.6777C125.404 18.9121 125.064 19.0908 124.677 19.2139C124.296 19.3311 123.828 19.3896 123.271 19.3896C122.685 19.3896 122.164 19.2871 121.707 19.082C121.255 18.877 120.898 18.5664 120.634 18.1504C120.376 17.7344 120.248 17.207 120.248 16.5684C120.248 15.6074 120.628 14.8691 121.39 14.3535C122.152 13.8379 123.312 13.5566 124.871 13.5098L126.532 13.4395V12.8506C126.532 12.0186 126.353 11.4355 125.996 11.1016C125.638 10.7676 125.134 10.6006 124.484 10.6006C123.98 10.6006 123.5 10.6738 123.042 10.8203C122.585 10.9668 122.152 11.1396 121.742 11.3389L121.293 10.2314C121.727 10.0088 122.225 9.81836 122.788 9.66016C123.35 9.50195 123.942 9.42285 124.563 9.42285ZM126.514 14.4678L125.046 14.5293C123.845 14.5762 122.999 14.7725 122.506 15.1182C122.014 15.4639 121.768 15.9531 121.768 16.5859C121.768 17.1367 121.935 17.5439 122.269 17.8076C122.603 18.0713 123.045 18.2031 123.596 18.2031C124.452 18.2031 125.152 17.9658 125.697 17.4912C126.242 17.0166 126.514 16.3047 126.514 15.3555V14.4678ZM141.42 9.40527C142.481 9.40527 143.281 9.68359 143.82 10.2402C144.359 10.791 144.628 11.6787 144.628 12.9033V19.2139H143.187V12.9736C143.187 12.1943 143.017 11.6113 142.677 11.2246C142.343 10.832 141.845 10.6357 141.183 10.6357C140.251 10.6357 139.575 10.9053 139.153 11.4443C138.731 11.9834 138.52 12.7773 138.52 13.8262V19.2139H137.07V12.9736C137.07 12.4521 136.994 12.0186 136.841 11.6729C136.695 11.3271 136.472 11.0693 136.173 10.8994C135.88 10.7236 135.508 10.6357 135.057 10.6357C134.418 10.6357 133.906 10.7676 133.519 11.0312C133.132 11.2949 132.851 11.6875 132.675 12.209C132.505 12.7246 132.42 13.3604 132.42 14.1162V19.2139H130.961V9.58105H132.139L132.359 10.9434H132.438C132.631 10.6094 132.875 10.3281 133.167 10.0996C133.46 9.87109 133.789 9.69824 134.152 9.58105C134.515 9.46387 134.902 9.40527 135.312 9.40527C136.044 9.40527 136.657 9.54297 137.149 9.81836C137.647 10.0879 138.007 10.501 138.23 11.0576H138.309C138.625 10.501 139.059 10.0879 139.61 9.81836C140.161 9.54297 140.764 9.40527 141.42 9.40527ZM151.334 9.40527C152.155 9.40527 152.858 9.58691 153.444 9.9502C154.03 10.3135 154.478 10.8232 154.789 11.4795C155.099 12.1299 155.254 12.8916 155.254 13.7646V14.6699H148.601C148.619 15.8008 148.9 16.6621 149.445 17.2539C149.99 17.8457 150.757 18.1416 151.748 18.1416C152.357 18.1416 152.896 18.0859 153.365 17.9746C153.833 17.8633 154.32 17.6992 154.824 17.4824V18.7656C154.337 18.9824 153.854 19.1406 153.374 19.2402C152.899 19.3398 152.336 19.3896 151.686 19.3896C150.76 19.3896 149.952 19.2021 149.26 18.8271C148.575 18.4463 148.042 17.8896 147.661 17.1572C147.28 16.4248 147.089 15.5283 147.089 14.4678C147.089 13.4307 147.262 12.5342 147.608 11.7783C147.959 11.0166 148.452 10.4307 149.084 10.0205C149.723 9.61035 150.473 9.40527 151.334 9.40527ZM151.317 10.6006C150.538 10.6006 149.917 10.8555 149.454 11.3652C148.991 11.875 148.715 12.5869 148.627 13.501H153.725C153.719 12.9268 153.628 12.4229 153.453 11.9893C153.283 11.5498 153.022 11.21 152.67 10.9697C152.319 10.7236 151.868 10.6006 151.317 10.6006Z" fill="#1A4F83"/>
<path fill-rule="evenodd" clip-rule="evenodd" d="M22.7737 0C23.3594 0 23.9064 0.267802 24.2313 0.713653L45.2531 29.5611C45.6749 30.1398 45.6404 30.9014 45.1678 31.4463C44.6952 31.9911 43.8923 32.1949 43.1804 31.9507L22.7737 24.9498L2.36693 31.9507C1.65502 32.1949 0.852176 31.9911 0.379561 31.4463C-0.0930542 30.9014 -0.127529 30.1398 0.294222 29.5611L21.3161 0.713653C21.641 0.267802 22.1879 0 22.7737 0ZM6.22212 27.2048L22.1586 21.7376C22.5552 21.6016 22.9922 21.6016 23.3888 21.7376L39.3252 27.2048L22.7737 4.49183L6.22212 27.2048Z" fill="#43CBC3"/>
<path fill-rule="evenodd" clip-rule="evenodd" d="M21.669 13.5805C22.3127 13.1021 23.2348 13.1021 23.8784 13.5805L44.9002 29.2062C45.6511 29.7643 45.7653 30.7737 45.1552 31.4606C44.5451 32.1476 43.4418 32.252 42.6909 31.6938L22.7737 16.8893L2.85656 31.6938C2.10567 32.252 1.00236 32.1476 0.392264 31.4606C-0.217836 30.7737 -0.103701 29.7643 0.647192 29.2062L21.669 13.5805Z" fill="#FFAE80"/>
</svg>
